<svg xmlns="http://www.w3.org/2000/svg" viewBox="0 0 1440 180" preserveAspectRatio="none"><path d="M0,180 L0,120 L50,120 L50,95 L65,95 L65,75 L80,75 L80,60 L95,60 L95,45 L110,45 L110,60 L125,60 L125,75 L140,75 L140,95 L160,95 L160,120 L200,120 L200,90 L215,90 L215,65 L230,65 L230,45 L245,45 L245,30 L260,30 L260,45 L275,45 L275,65 L290,65 L290,90 L310,90 L310,120 L340,120 L340,105 L355,105 L355,85 L365,85 L365,65 L372,55 L379,65 L379,85 L389,85 L389,105 L405,105 L405,120 L440,120 L440,95 L455,95 L455,70 L470,70 L470,50 L480,35 L490,50 L490,70 L505,70 L505,95 L520,95 L520,120 L555,120 L555,105 L570,105 L570,88 L582,88 L582,72 L590,62 L598,72 L598,88 L610,88 L610,105 L625,105 L625,120 L660,120 L660,100 L672,100 L672,80 L684,80 L684,62 L692,50 L700,38 L708,50 L716,62 L716,80 L728,80 L728,100 L740,100 L740,120 L775,120 L775,105 L788,105 L788,90 L800,90 L800,105 L812,105 L812,120 L848,120 L848,95 L862,95 L862,70 L876,70 L876,50 L884,38 L892,50 L892,70 L906,70 L906,95 L920,95 L920,120 L958,120 L958,108 L972,108 L972,92 L984,92 L984,108 L996,108 L996,120 L1030,120 L1030,98 L1044,98 L1044,78 L1056,78 L1056,60 L1064,48 L1072,36 L1080,48 L1080,60 L1092,60 L1092,78 L1104,78 L1104,98 L1118,98 L1118,120 L1155,120 L1155,108 L1168,108 L1168,92 L1180,92 L1180,108 L1192,108 L1192,120 L1226,120 L1226,96 L1240,96 L1240,75 L1254,75 L1254,56 L1262,44 L1270,32 L1278,44 L1278,56 L1292,56 L1292,75 L1306,75 L1306,96 L1320,96 L1320,120 L1360,120 L1360,108 L1375,108 L1375,120 L1440,120 L1440,180 Z" fill="currentColor"/><rect x="696" y="14" width="8" height="24" fill="currentColor"/><polygon points="700,8 693,14 707,14" fill="currentColor"/><rect x="698" y="38" width="4" height="6" fill="currentColor" opacity="0.6"/></svg>
